<svg id="Layer_1" xmlns="http://www.w3.org/2000/svg" width="512" height="512" viewBox="0 0 512 512"><defs><style>.cls-1{fill:#ffba0d}</style></defs><rect class="cls-1" x="77.996" y="214.556" width="22.293" height="83.599" rx="11.146" ry="11.146" transform="rotate(-90 89.142 256.355)"/><rect class="cls-1" x="247.98" y="44.571" width="22.293" height="83.599" rx="11.146" ry="11.146" transform="rotate(180 259.127 86.37)"/><rect class="cls-1" x="368.177" y="94.359" width="22.293" height="83.599" rx="11.146" ry="11.146" transform="rotate(-135 379.324 136.158)"/><rect class="cls-1" x="127.783" y="94.359" width="22.293" height="83.599" rx="11.146" ry="11.146" transform="rotate(135 138.93 136.158)"/><path class="cls-1" d="M170.98 258.021c1.728-4.813 5.53-13.862 5.636-14.54 6.203-40.043 40.73-70.725 82.51-70.725 4.331 0 8.558.41 12.707 1.057.715.112 29.18-.534 35.32.142 9.3 1.025 13.16-11.24 4.932-15.695-15.751-8.527-33.788-13.37-52.958-13.37-61.56 0-111.466 49.905-111.466 111.465 0 .355.002.71.006 1.064.061 5.545 5.373 8.045 10.908 7.701 2.787-.173 3.948-.637 5.914-1.435 2.873-1.166 5.444-2.745 6.492-5.664z"/><path d="M378.952 468.139c.314 0 1.07.033 1.375 0 3.878-.037 7.334-.32 11.31-.851 41.45-5.548 74.427-39.645 78.759-81.24 5.063-48.628-27.807-90.567-72.633-99.887-5.975-54.372-52.02-96.685-107.983-96.685-53.385 0-97.684 38.522-106.85 89.264-.614-.016-1.212-.092-1.829-.092-33.147 0-60.588 24.14-65.884 55.783-.335-.005-.658-.05-.995-.05-37.86 0-68.373 31.46-66.822 69.664 1.37 33.722 28.701 61.688 62.044 64.094h269.508zm-264.74-22.324c-23.763-.053-44.16-20.122-44.54-43.824-.195-12.045 4.348-23.404 12.79-31.983 8.444-8.58 19.724-13.306 31.76-13.306.658 0 1.304.04 2.534.122 2.183.122 4.194.264 6.046.394 3.048.215 5.634.403 7.82.403 1.915 0 3.257-.158 3.99-.472.88-.377 1.932-2.698 1.932-11.621 0-1.877.149-3.716.374-5.531 2.762-22.236 21.732-39.007 44.621-39.006l.045.001a44.15 44.15 0 0117.875 3.95c.425.193.862.29 1.3.29.794 0 1.584-.331 2.113-.888.474-.5.697-1.122.66-1.85a84.972 84.972 0 01-.11-4.339c0-4.237.387-8.72 1.184-13.706 6.734-42.097 42.554-72.651 85.173-72.651 42.298 0 78.077 30.283 85.074 72.007.864 5.144 1.284 9.838 1.284 14.35 0 1.728-.057 3.443-.165 5.144-.06.911.233 1.76.822 2.387.366.39 1.01.857 2.158.857 6.601 0 13.221.964 19.677 2.864 32.436 9.546 53.262 40.965 49.52 74.708-3.59 32.358-30.807 58.78-63.536 61.473l-5.661.23H119.798l-5.586-.003z" fill="#d3e1e5"/></svg>